<!DOCTYPE svg PUBLIC "-//W3C//DTD SVG 20010904//EN" "http://www.w3.org/TR/2001/REC-SVG-20010904/DTD/svg10.dtd">
<svg version="1.0" xmlns="http://www.w3.org/2000/svg" width="225px" height="75px" viewBox="0 0 9010 2840" preserveAspectRatio="xMidYMid meet">
<g id="layer101" fill="#7577cb" stroke="none">
 <path d="M0 1420 l0 -1420 1420 0 1420 0 0 1420 0 1420 -1420 0 -1420 0 0 -1420z"/>
 <path d="M8835 1905 l-90 -73 -70 5 c-189 15 -339 -98 -390 -294 -20 -75 -20 -298 -1 -370 35 -132 117 -233 221 -273 81 -30 197 -31 277 0 79 29 150 96 190 178 l33 67 0 210 0 210 -31 66 c-17 36 -48 82 -68 102 -20 20 -36 38 -36 41 0 2 32 28 70 57 46 35 70 61 70 74 0 19 -59 76 -77 74 -4 0 -48 -33 -98 -74z m-134 -186 c35 -8 64 -23 91 -47 73 -66 98 -147 98 -320 0 -230 -70 -346 -218 -359 -112 -10 -183 30 -234 134 -31 64 -33 73 -36 204 -4 120 -1 147 17 210 35 112 111 178 218 188 7 1 35 -4 64 -10z"/>
 <path d="M4605 1833 c-37 -10 -73 -43 -89 -83 -13 -33 -16 -83 -16 -280 l0 -240 -65 0 -65 0 0 -50 0 -50 65 0 65 0 0 -85 0 -85 60 0 60 0 0 85 0 85 65 0 65 0 0 50 0 50 -66 0 -66 0 4 229 c3 212 4 231 23 251 17 19 27 21 68 17 l47 -6 0 53 c0 52 -1 54 -31 60 -35 7 -94 6 -124 -1z"/>
 <path d="M5078 1827 c-97 -28 -176 -107 -205 -206 -23 -80 -20 -222 7 -293 43 -115 121 -186 227 -208 64 -14 120 -6 189 25 91 41 144 137 152 277 l5 88 -237 0 -237 0 7 38 c22 118 94 182 204 182 57 0 100 -18 146 -61 l30 -29 37 27 c20 16 36 31 37 35 1 20 -76 88 -123 108 -63 28 -172 35 -239 17z m242 -445 c0 -38 -39 -112 -73 -136 -21 -15 -44 -21 -85 -21 -73 0 -115 28 -148 99 -42 89 -47 86 141 86 l165 0 0 -28z"/>
 <path d="M3400 1360 l0 -470 65 0 65 0 0 470 0 470 -65 0 -65 0 0 -470z"/>
 <path d="M3737 1823 c-4 -3 -7 -161 -7 -350 l0 -343 65 0 65 0 0 35 0 35 45 -34 c106 -82 276 -66 339 32 39 59 45 111 46 380 l0 252 -65 0 -65 0 0 -257 c0 -185 -4 -265 -13 -282 -48 -94 -205 -86 -266 13 -20 31 -21 49 -21 280 l0 246 -58 0 c-32 0 -62 -3 -65 -7z"/>
 <path d="M5577 1823 c-4 -3 -7 -161 -7 -350 l0 -343 65 0 65 0 0 31 0 31 35 -31 c41 -35 105 -55 152 -46 l33 6 0 59 0 60 -56 0 c-68 0 -120 23 -145 64 -17 28 -19 54 -19 279 l0 247 -58 0 c-32 0 -62 -3 -65 -7z"/>
 <path d="M6017 1823 c-4 -3 -7 -161 -7 -350 l0 -343 65 0 65 0 0 35 0 35 45 -34 c106 -82 276 -66 339 32 39 59 45 111 46 380 l0 252 -65 0 -65 0 0 -257 c0 -185 -4 -265 -13 -282 -48 -94 -205 -86 -266 13 -20 31 -21 49 -21 280 l0 246 -58 0 c-32 0 -62 -3 -65 -7z"/>
 <path d="M6750 1360 l0 -470 203 0 c151 0 216 4 254 15 123 37 188 128 187 265 -1 107 -36 170 -129 229 l-42 26 109 195 c59 107 108 199 108 203 0 4 -32 7 -71 5 l-71 -3 -101 -187 -101 -188 -103 0 -103 0 -2 188 -3 187 -67 3 -68 3 0 -471z m430 -46 c55 -32 80 -77 80 -143 0 -74 -24 -119 -80 -148 -38 -20 -57 -23 -167 -23 l-123 0 0 171 0 171 128 -3 c106 -3 133 -7 162 -25z"/>
 <path d="M7560 1360 l0 -470 300 0 300 0 0 55 0 55 -230 0 -230 0 0 145 0 145 200 0 200 0 0 55 0 55 -200 0 -200 0 0 160 0 160 230 0 230 0 0 55 0 55 -300 0 -300 0 0 -470z"/>
 </g>
<g id="layer102" fill="#dbdbec" stroke="none">
 <path d="M1236 2145 c-93 -52 -175 -95 -182 -95 -8 0 -14 -4 -14 -8 0 -5 -10 -13 -23 -19 -18 -8 -31 -7 -57 8 -19 10 -40 18 -47 19 -10 0 -180 -89 -293 -154 l-25 -15 -3 -185 -2 -185 70 -38 70 -38 0 -162 c0 -117 4 -165 13 -174 6 -6 86 -52 177 -103 l165 -92 5 -74 5 -75 155 -87 c85 -48 159 -87 163 -88 5 0 75 36 155 81 81 44 154 84 161 88 11 5 15 28 15 81 l1 74 165 92 c91 50 171 97 178 103 9 9 12 57 12 175 l0 162 72 37 72 36 -3 183 c-3 173 -8 208 -33 208 -6 0 -56 26 -112 57 -176 100 -172 98 -212 79 -48 -23 -63 -21 -127 18 -31 19 -69 41 -84 49 -33 16 -116 63 -158 88 -35 21 -95 49 -104 49 -3 -1 -82 -43 -175 -95z m300 -51 c209 -116 205 -113 196 -131 -5 -9 -36 -30 -68 -48 l-59 -33 0 -188 0 -187 150 -83 c83 -46 157 -84 165 -84 8 0 35 11 59 25 23 14 45 25 47 25 2 0 4 -55 4 -123 l0 -122 -122 -68 c-67 -37 -132 -70 -145 -73 -22 -6 -23 -4 -23 47 0 30 -4 59 -8 65 -4 6 -68 45 -143 87 -75 41 -145 81 -156 88 -18 11 -27 8 -69 -18 -27 -17 -96 -56 -154 -88 -58 -32 -108 -63 -112 -69 -4 -6 -8 -28 -8 -48 0 -52 -8 -69 -28 -58 -10 4 -46 23 -82 41 -107 53 -125 63 -153 85 -26 21 -27 24 -27 138 0 64 2 116 4 116 2 0 24 -11 47 -25 24 -14 50 -25 58 -25 8 0 63 27 122 60 60 33 131 72 158 86 l50 25 -4 47 c-2 26 -4 109 -5 185 l0 137 -51 28 c-28 15 -62 36 -76 47 l-24 20 163 92 c90 50 166 91 169 92 4 1 60 -29 125 -65z m-656 -257 c0 -96 -3 -116 -17 -129 -32 -27 -182 -100 -193 -93 -6 4 -10 49 -10 113 l0 107 103 57 c56 31 105 57 110 58 4 0 7 -51 7 -113z m252 14 c28 -16 28 -16 28 -128 0 -112 -6 -134 -32 -111 -8 7 -50 32 -94 55 l-79 41 -3 122 -3 122 78 -43 c43 -24 90 -50 105 -58z m741 -142 c-16 -14 -145 -81 -174 -89 l-29 -9 0 112 0 112 103 57 102 57 3 -116 c1 -64 -1 -120 -5 -124z m193 184 l104 -58 0 -107 c0 -59 -3 -109 -7 -111 -10 -6 -172 69 -194 90 -14 11 -17 36 -18 129 -1 63 1 114 4 114 4 0 53 -26 111 -57z m-1050 -300 c57 -31 101 -60 97 -64 -16 -15 -194 -109 -206 -109 -6 0 -32 14 -57 30 -25 16 -48 30 -53 30 -18 0 -89 52 -81 60 8 8 185 109 192 110 2 0 51 -26 108 -57z m1007 1 c56 -31 103 -57 105 -59 1 -1 -19 -13 -45 -26 -27 -13 -50 -27 -53 -30 -11 -14 -91 -49 -111 -49 -12 0 -56 19 -98 41 -94 51 -105 59 -92 72 8 8 181 106 189 107 2 0 49 -25 105 -56z m-643 -521 l0 -118 -89 -47 c-49 -27 -98 -48 -110 -48 -20 0 -21 5 -21 108 l0 109 103 56 c56 31 105 56 110 57 4 0 7 -53 7 -117z m167 70 c46 -27 93 -52 104 -58 17 -9 19 -21 19 -122 0 -72 -4 -113 -10 -113 -6 0 -52 21 -102 47 -60 32 -93 56 -99 71 -10 26 -12 222 -3 222 3 0 44 -21 91 -47z m-26 -305 c96 -51 113 -69 73 -77 -10 -2 -21 -7 -24 -11 -3 -4 -31 -22 -62 -38 -31 -17 -67 -37 -78 -44 -18 -11 -23 -10 -34 5 -7 9 -19 17 -26 17 -14 0 -125 67 -140 85 -8 10 11 25 82 64 51 28 97 51 101 51 5 0 53 -24 108 -52z"/>
 <path d="M8835 1905 l-90 -73 -70 5 c-189 15 -339 -98 -390 -294 -20 -75 -20 -298 -1 -370 35 -132 117 -233 221 -273 81 -30 197 -31 277 0 79 29 150 96 190 178 l33 67 0 210 0 210 -31 66 c-17 36 -48 82 -68 102 -20 20 -36 38 -36 41 0 2 32 28 70 57 46 35 70 61 70 74 0 19 -59 76 -77 74 -4 0 -48 -33 -98 -74z m-134 -186 c35 -8 64 -23 91 -47 73 -66 98 -147 98 -320 0 -230 -70 -346 -218 -359 -112 -10 -183 30 -234 134 -31 64 -33 73 -36 204 -4 120 -1 147 17 210 35 112 111 178 218 188 7 1 35 -4 64 -10z"/>
 <path d="M4605 1833 c-37 -10 -73 -43 -89 -83 -13 -33 -16 -83 -16 -280 l0 -240 -65 0 -65 0 0 -50 0 -50 65 0 65 0 0 -85 0 -85 60 0 60 0 0 85 0 85 65 0 65 0 0 50 0 50 -66 0 -66 0 4 229 c3 212 4 231 23 251 17 19 27 21 68 17 l47 -6 0 53 c0 52 -1 54 -31 60 -35 7 -94 6 -124 -1z"/>
 <path d="M5078 1827 c-97 -28 -176 -107 -205 -206 -23 -80 -20 -222 7 -293 43 -115 121 -186 227 -208 64 -14 120 -6 189 25 91 41 144 137 152 277 l5 88 -237 0 -237 0 7 38 c22 118 94 182 204 182 57 0 100 -18 146 -61 l30 -29 37 27 c20 16 36 31 37 35 1 20 -76 88 -123 108 -63 28 -172 35 -239 17z m242 -445 c0 -38 -39 -112 -73 -136 -21 -15 -44 -21 -85 -21 -73 0 -115 28 -148 99 -42 89 -47 86 141 86 l165 0 0 -28z"/>
 <path d="M3400 1360 l0 -470 65 0 65 0 0 470 0 470 -65 0 -65 0 0 -470z"/>
 <path d="M3737 1823 c-4 -3 -7 -161 -7 -350 l0 -343 65 0 65 0 0 35 0 35 45 -34 c106 -82 276 -66 339 32 39 59 45 111 46 380 l0 252 -65 0 -65 0 0 -257 c0 -185 -4 -265 -13 -282 -48 -94 -205 -86 -266 13 -20 31 -21 49 -21 280 l0 246 -58 0 c-32 0 -62 -3 -65 -7z"/>
 <path d="M5577 1823 c-4 -3 -7 -161 -7 -350 l0 -343 65 0 65 0 0 31 0 31 35 -31 c41 -35 105 -55 152 -46 l33 6 0 59 0 60 -56 0 c-68 0 -120 23 -145 64 -17 28 -19 54 -19 279 l0 247 -58 0 c-32 0 -62 -3 -65 -7z"/>
 <path d="M6017 1823 c-4 -3 -7 -161 -7 -350 l0 -343 65 0 65 0 0 35 0 35 45 -34 c106 -82 276 -66 339 32 39 59 45 111 46 380 l0 252 -65 0 -65 0 0 -257 c0 -185 -4 -265 -13 -282 -48 -94 -205 -86 -266 13 -20 31 -21 49 -21 280 l0 246 -58 0 c-32 0 -62 -3 -65 -7z"/>
 <path d="M6750 1360 l0 -470 203 0 c151 0 216 4 254 15 123 37 188 128 187 265 -1 107 -36 170 -129 229 l-42 26 109 195 c59 107 108 199 108 203 0 4 -32 7 -71 5 l-71 -3 -101 -187 -101 -188 -103 0 -103 0 -2 188 -3 187 -67 3 -68 3 0 -471z m430 -46 c55 -32 80 -77 80 -143 0 -74 -24 -119 -80 -148 -38 -20 -57 -23 -167 -23 l-123 0 0 171 0 171 128 -3 c106 -3 133 -7 162 -25z"/>
 <path d="M7560 1360 l0 -470 300 0 300 0 0 55 0 55 -230 0 -230 0 0 145 0 145 200 0 200 0 0 55 0 55 -200 0 -200 0 0 160 0 160 230 0 230 0 0 55 0 55 -300 0 -300 0 0 -470z"/>
 </g>

</svg>